<?xml version="1.0" encoding="UTF-8" standalone="no"?>
<svg
   xmlns:svg="http://www.w3.org/2000/svg"
   xmlns="http://www.w3.org/2000/svg"
   id="Layer_1"
   data-name="Layer 1"
   viewBox="0 0 91.34 75.15"
   version="1.1">

  <path
     style="fill:#cd8920;stroke-width:0.31843221"
     d="M 21.712237,74.693749 C 14.450518,73.470994 7.5697279,68.441106 3.845212,61.632869 -0.27213687,54.106555 -1.0160083,42.091029 2.0674876,32.917834 3.948041,27.323314 7.3768328,21.774139 11.9179,16.975874 17.316731,11.271262 21.095486,8.5193264 30.703684,3.2948375 l 5.572564,-3.03009946 0.420483,1.15728146 c 0.628563,1.7299649 0.334099,4.3219575 -0.6061,5.3351578 -0.423324,0.4561924 -2.919097,2.4424432 -5.546163,4.4138907 -9.465162,7.103009 -14.290283,12.182671 -16.069343,16.917057 -1.619778,4.310505 -1.581697,11.065478 0.08148,14.453957 1.469121,2.993113 3.310399,3.389366 10.204806,2.196137 7.081504,-1.22561 11.299365,-0.471006 14.690413,2.628222 3.536521,3.232186 5.317229,9.276589 4.30514,14.613316 -0.544764,2.872526 -1.733561,4.99353 -4.103792,7.321823 -4.510452,4.43065 -11.383465,6.496342 -17.94094,5.392169 z"/>
  <path
     style="fill:#cd8920;stroke-width:0.31843221"
     d="M 68.278685,74.561096 C 61.738429,73.157644 56.057693,69.338184 52.124863,63.700014 48.455761,58.439934 46.465938,49.778453 47.262854,42.536229 48.406939,32.139001 52.945009,22.892497 60.795528,14.962853 64.5463,11.174278 67.579447,8.7682678 71.568038,6.4176805 75.498592,4.1012956 83.227784,1.0229984 83.764855,1.5600679 c 0.115031,0.1150324 0.278399,0.9298426 0.363039,1.8106892 0.211502,2.2011477 -0.726217,3.5319071 -4.287206,6.0841814 -8.018307,5.7469725 -15.130115,12.3735995 -17.090439,15.9244935 -3.329798,6.031538 -3.24495,15.857065 0.163707,18.957496 1.545139,1.405423 3.799317,1.47942 8.530835,0.280042 5.34519,-1.354936 9.49858,-1.001396 12.894857,1.09762 1.776692,1.098056 4.32251,4.072213 5.265019,6.150871 3.352511,7.393808 1.2232,15.000995 -5.47065,19.54444 -4.45088,3.021033 -10.686535,4.260349 -15.855332,3.151195 z"/>
</svg>
